<svg xmlns="http://www.w3.org/2000/svg" viewBox="0 0 64 64">
  <defs>
    <linearGradient id="grad19" x1="0%" y1="0%" x2="100%" y2="100%">
      <stop offset="0%" stop-color="#667eea"/>
      <stop offset="100%" stop-color="#764ba2"/>
    </linearGradient>
  </defs>
  <!-- Background -->
  <rect width="64" height="64" rx="12" fill="url(#grad19)"/>
  <!-- Spiral Frame (end point stays near top edge) -->
  <path d="M 32 10 Q 48 10 48 26 Q 48 42 32 42 Q 16 42 16 26 Q 16 10 32 10 Q 44 10 44 26 Q 44 38 32 38 Q 20 38 20 26 Q 20 14 28 14"
        fill="none" stroke="white" stroke-width="2.5" stroke-linecap="round" stroke-linejoin="round" opacity="0.9"/>
  <!-- Stacked Papers in Center (3 layers, 整体范围y从24到40，中心在32，完美居中) -->
  <rect x="24" y="24" width="14" height="10" rx="0.5" fill="white" opacity="0.5"/>
  <rect x="25" y="26" width="14" height="10" rx="0.5" fill="white" opacity="0.7"/>
  <rect x="26" y="28" width="14" height="10" rx="0.5" fill="white" opacity="0.95"/>
  <line x1="28" y1="31" x2="38" y2="31" stroke="#667eea" stroke-width="0.9" stroke-linecap="round"/>
  <line x1="28" y1="34" x2="38" y2="34" stroke="#667eea" stroke-width="0.9" stroke-linecap="round"/>
  <!-- Dot at spiral end (near top) -->
  <circle cx="28" cy="14" r="1.5" fill="white"/>
</svg>
